<mxfile host="app.diagrams.net" modified="2023-04-07T04:37:57.001Z" agent="Mozilla/5.0 (Windows NT 10.0; Win64; x64) AppleWebKit/537.36 (KHTML, like Gecko) Chrome/111.0.0.0 Safari/537.36" version="21.1.5" etag="Pkm57K8qD92N6juhk42R" type="device">
  <diagram id="C5RBs43oDa-KdzZeNtuy" name="Page-1">
    <mxGraphModel dx="1050" dy="602" grid="1" gridSize="10" guides="1" tooltips="1" connect="1" arrows="1" fold="1" page="1" pageScale="1" pageWidth="827" pageHeight="1169" math="0" shadow="0">
      <root>
        <mxCell id="WIyWlLk6GJQsqaUBKTNV-0" />
        <mxCell id="WIyWlLk6GJQsqaUBKTNV-1" parent="WIyWlLk6GJQsqaUBKTNV-0" />
        <mxCell id="YQYQY47Vbs7X-JpmHEk0-10" style="edgeStyle=orthogonalEdgeStyle;rounded=0;orthogonalLoop=1;jettySize=auto;html=1;" edge="1" parent="WIyWlLk6GJQsqaUBKTNV-1" source="YQYQY47Vbs7X-JpmHEk0-1" target="YQYQY47Vbs7X-JpmHEk0-2">
          <mxGeometry relative="1" as="geometry" />
        </mxCell>
        <mxCell id="YQYQY47Vbs7X-JpmHEk0-1" value="" style="strokeWidth=2;html=1;shape=mxgraph.flowchart.start_2;whiteSpace=wrap;fillColor=#647687;fontColor=#ffffff;strokeColor=#314354;" vertex="1" parent="WIyWlLk6GJQsqaUBKTNV-1">
          <mxGeometry x="340" y="40" width="90" height="90" as="geometry" />
        </mxCell>
        <mxCell id="YQYQY47Vbs7X-JpmHEk0-11" style="edgeStyle=orthogonalEdgeStyle;rounded=0;orthogonalLoop=1;jettySize=auto;html=1;" edge="1" parent="WIyWlLk6GJQsqaUBKTNV-1" source="YQYQY47Vbs7X-JpmHEk0-2" target="YQYQY47Vbs7X-JpmHEk0-3">
          <mxGeometry relative="1" as="geometry" />
        </mxCell>
        <mxCell id="YQYQY47Vbs7X-JpmHEk0-2" value="&quot;Ingresar primer valor: &quot; .num1" style="shape=parallelogram;html=1;strokeWidth=2;perimeter=parallelogramPerimeter;whiteSpace=wrap;rounded=1;arcSize=12;size=0.23;fillColor=#6d8764;fontColor=#ffffff;strokeColor=#3A5431;" vertex="1" parent="WIyWlLk6GJQsqaUBKTNV-1">
          <mxGeometry x="270" y="170" width="259" height="70" as="geometry" />
        </mxCell>
        <mxCell id="YQYQY47Vbs7X-JpmHEk0-12" style="edgeStyle=orthogonalEdgeStyle;rounded=0;orthogonalLoop=1;jettySize=auto;html=1;" edge="1" parent="WIyWlLk6GJQsqaUBKTNV-1" source="YQYQY47Vbs7X-JpmHEk0-3" target="YQYQY47Vbs7X-JpmHEk0-4">
          <mxGeometry relative="1" as="geometry" />
        </mxCell>
        <mxCell id="YQYQY47Vbs7X-JpmHEk0-3" value="&quot;Ingresar segundo valor: &quot; .num2" style="shape=parallelogram;html=1;strokeWidth=2;perimeter=parallelogramPerimeter;whiteSpace=wrap;rounded=1;arcSize=12;size=0.23;fillColor=#6d8764;fontColor=#ffffff;strokeColor=#3A5431;" vertex="1" parent="WIyWlLk6GJQsqaUBKTNV-1">
          <mxGeometry x="250" y="280" width="260" height="70" as="geometry" />
        </mxCell>
        <mxCell id="YQYQY47Vbs7X-JpmHEk0-13" style="edgeStyle=orthogonalEdgeStyle;rounded=0;orthogonalLoop=1;jettySize=auto;html=1;" edge="1" parent="WIyWlLk6GJQsqaUBKTNV-1" source="YQYQY47Vbs7X-JpmHEk0-4" target="YQYQY47Vbs7X-JpmHEk0-5">
          <mxGeometry relative="1" as="geometry" />
        </mxCell>
        <mxCell id="YQYQY47Vbs7X-JpmHEk0-4" value="&quot;Ingresar tercer valor: &quot; .num3" style="shape=parallelogram;html=1;strokeWidth=2;perimeter=parallelogramPerimeter;whiteSpace=wrap;rounded=1;arcSize=12;size=0.23;fillColor=#6d8764;fontColor=#ffffff;strokeColor=#3A5431;" vertex="1" parent="WIyWlLk6GJQsqaUBKTNV-1">
          <mxGeometry x="250" y="380" width="265" height="70" as="geometry" />
        </mxCell>
        <mxCell id="YQYQY47Vbs7X-JpmHEk0-14" style="edgeStyle=orthogonalEdgeStyle;rounded=0;orthogonalLoop=1;jettySize=auto;html=1;entryX=0.5;entryY=0;entryDx=0;entryDy=0;" edge="1" parent="WIyWlLk6GJQsqaUBKTNV-1" source="YQYQY47Vbs7X-JpmHEk0-5" target="YQYQY47Vbs7X-JpmHEk0-7">
          <mxGeometry relative="1" as="geometry" />
        </mxCell>
        <mxCell id="YQYQY47Vbs7X-JpmHEk0-5" value="resultParcial = num1 + num2" style="rounded=1;whiteSpace=wrap;html=1;absoluteArcSize=1;arcSize=14;strokeWidth=2;fillColor=#6d8764;fontColor=#ffffff;strokeColor=#3A5431;" vertex="1" parent="WIyWlLk6GJQsqaUBKTNV-1">
          <mxGeometry x="280" y="480" width="210" height="100" as="geometry" />
        </mxCell>
        <mxCell id="YQYQY47Vbs7X-JpmHEk0-15" style="edgeStyle=orthogonalEdgeStyle;rounded=0;orthogonalLoop=1;jettySize=auto;html=1;" edge="1" parent="WIyWlLk6GJQsqaUBKTNV-1" source="YQYQY47Vbs7X-JpmHEk0-7" target="YQYQY47Vbs7X-JpmHEk0-8">
          <mxGeometry relative="1" as="geometry" />
        </mxCell>
        <mxCell id="YQYQY47Vbs7X-JpmHEk0-7" value="resultTotal = resultParcial + num3" style="rounded=1;whiteSpace=wrap;html=1;absoluteArcSize=1;arcSize=14;strokeWidth=2;fillColor=#6d8764;fontColor=#ffffff;strokeColor=#3A5431;" vertex="1" parent="WIyWlLk6GJQsqaUBKTNV-1">
          <mxGeometry x="280" y="610" width="210" height="100" as="geometry" />
        </mxCell>
        <mxCell id="YQYQY47Vbs7X-JpmHEk0-16" style="edgeStyle=orthogonalEdgeStyle;rounded=0;orthogonalLoop=1;jettySize=auto;html=1;" edge="1" parent="WIyWlLk6GJQsqaUBKTNV-1" source="YQYQY47Vbs7X-JpmHEk0-8" target="YQYQY47Vbs7X-JpmHEk0-9">
          <mxGeometry relative="1" as="geometry" />
        </mxCell>
        <mxCell id="YQYQY47Vbs7X-JpmHEk0-8" value="&quot;El valor total de la suma es: &quot; . resultTotal" style="strokeWidth=2;html=1;shape=mxgraph.flowchart.document2;whiteSpace=wrap;size=0.25;fillColor=#6d8764;fontColor=#ffffff;strokeColor=#3A5431;" vertex="1" parent="WIyWlLk6GJQsqaUBKTNV-1">
          <mxGeometry x="258.75" y="750" width="252.5" height="100" as="geometry" />
        </mxCell>
        <mxCell id="YQYQY47Vbs7X-JpmHEk0-9" value="" style="strokeWidth=2;html=1;shape=mxgraph.flowchart.start_2;whiteSpace=wrap;fillColor=#647687;fontColor=#ffffff;strokeColor=#314354;" vertex="1" parent="WIyWlLk6GJQsqaUBKTNV-1">
          <mxGeometry x="337.5" y="890" width="90" height="90" as="geometry" />
        </mxCell>
      </root>
    </mxGraphModel>
  </diagram>
</mxfile>
